<mxfile host="app.diagrams.net" agent="Mozilla/5.0 (Windows NT 10.0; Win64; x64) AppleWebKit/537.36 (KHTML, like Gecko) Chrome/130.0.0.0 Safari/537.36" version="24.8.4">
  <diagram name="Page-1" id="Mwur-vPen7jD0gMWht9a">
    <mxGraphModel dx="1120" dy="506" grid="1" gridSize="10" guides="1" tooltips="1" connect="1" arrows="1" fold="1" page="1" pageScale="1" pageWidth="850" pageHeight="1100" math="0" shadow="0">
      <root>
        <mxCell id="0" />
        <mxCell id="1" parent="0" />
        <mxCell id="Q2bTffW69Mqj-ef85BlH-3" value="" style="edgeStyle=orthogonalEdgeStyle;rounded=0;orthogonalLoop=1;jettySize=auto;html=1;" edge="1" parent="1" source="Q2bTffW69Mqj-ef85BlH-1" target="Q2bTffW69Mqj-ef85BlH-2">
          <mxGeometry relative="1" as="geometry" />
        </mxCell>
        <mxCell id="Q2bTffW69Mqj-ef85BlH-1" value="Start" style="ellipse;whiteSpace=wrap;html=1;" vertex="1" parent="1">
          <mxGeometry x="170" y="50" width="120" height="50" as="geometry" />
        </mxCell>
        <mxCell id="Q2bTffW69Mqj-ef85BlH-2" value="int: linked_list = [1,2,8,9,12,16],&lt;div&gt;output = [], i, j = 0&lt;/div&gt;" style="shape=hexagon;perimeter=hexagonPerimeter2;whiteSpace=wrap;html=1;fixedSize=1;" vertex="1" parent="1">
          <mxGeometry x="150" y="130" width="160" height="80" as="geometry" />
        </mxCell>
        <mxCell id="Q2bTffW69Mqj-ef85BlH-4" value="j &amp;lt; len(linked_list)" style="rhombus;whiteSpace=wrap;html=1;" vertex="1" parent="1">
          <mxGeometry x="170" y="250" width="120" height="110" as="geometry" />
        </mxCell>
        <mxCell id="Q2bTffW69Mqj-ef85BlH-7" value="i % == 0" style="rhombus;whiteSpace=wrap;html=1;" vertex="1" parent="1">
          <mxGeometry x="180" y="410" width="100" height="90" as="geometry" />
        </mxCell>
      </root>
    </mxGraphModel>
  </diagram>
</mxfile>
